<svg xmlns="http://www.w3.org/2000/svg" viewBox="0 0 462.08 460.55"><g id="freepik--background-simple--inject-186"><path d="M327.45,437c35.72-7.86,68.13-27.12,85.55-57,28-48,1-71,13-114,6.7-24,27.16-35.11,40.88-54.1C525.6,130.64,433.48,3.79,339.8,16.31a88.87,88.87,0,0,0-35,12.07c-12.14,7.44-23.4,18.66-38.29,20-16.09,1.42-32.33-7-46.46-13.58-35.58-16.53-83.87-25.24-121.83-11C69.87,34.36,57.68,59.76,56,88.6s10.41,60.21,5,88.4c-5.54,28.82-27.58,52.29-34.71,81.1A104.7,104.7,0,0,0,61.5,364c34.88,28.59,79.11,20.39,119.17,35.12,23,8.46,38.94,27.8,63.15,35.19C270.73,442.55,300,443,327.45,437Z" transform="translate(-23.24 -15.45)" style="fill:#F1C376"></path><path d="M327.45,437c35.72-7.86,68.13-27.12,85.55-57,28-48,1-71,13-114,6.7-24,27.16-35.11,40.88-54.1C525.6,130.64,433.48,3.79,339.8,16.31a88.87,88.87,0,0,0-35,12.07c-12.14,7.44-23.4,18.66-38.29,20-16.09,1.42-32.33-7-46.46-13.58-35.58-16.53-83.87-25.24-121.83-11C69.87,34.36,57.68,59.76,56,88.6s10.41,60.21,5,88.4c-5.54,28.82-27.58,52.29-34.71,81.1A104.7,104.7,0,0,0,61.5,364c34.88,28.59,79.11,20.39,119.17,35.12,23,8.46,38.94,27.8,63.15,35.19C270.73,442.55,300,443,327.45,437Z" transform="translate(-23.24 -15.45)" style="fill:#fff;opacity:0.7000000000000001"></path></g><g id="freepik--Magnifiers--inject-186"><path d="M389.41,73.74a16.35,16.35,0,0,0,25.78,17l6.33,6.06a3.91,3.91,0,0,0,1.06,3.73L436.33,114a3.91,3.91,0,1,0,5.45-5.62L428,94.9a3.92,3.92,0,0,0-3.81-.94L418,88a16.08,16.08,0,0,0,3.14-6.26,16.36,16.36,0,1,0-31.73-8ZM418.3,81a13.43,13.43,0,1,1-9.74-16.3A13.44,13.44,0,0,1,418.3,81Z" transform="translate(-23.24 -15.45)" style="fill:none;stroke:#263238;stroke-miterlimit:10"></path><path d="M87,271.91A12.29,12.29,0,0,0,84.66,295l-1.84,6.33a2.93,2.93,0,0,0-2.12,2l-4.25,13.87a3,3,0,0,0,2,3.67,3,3,0,0,0,3.67-2L86.34,305a2.91,2.91,0,0,0-.7-2.87l1.82-6.22a12.3,12.3,0,1,0-.42-24Zm5.18,21.8a10.1,10.1,0,1,1,7.49-12.16A10.11,10.11,0,0,1,92.22,293.71Z" transform="translate(-23.24 -15.45)" style="fill:none;stroke:#263238;stroke-miterlimit:10"></path></g><g id="freepik--Messages--inject-186"><path d="M420.4,179.75h-29a7.1,7.1,0,0,0-7.1,7.1V202.9a7.1,7.1,0,0,0,7.1,7.1h20.2l-1,10L420,210h.4a7.1,7.1,0,0,0,7.1-7.1V186.85A7.1,7.1,0,0,0,420.4,179.75Z" transform="translate(-23.24 -15.45)" style="fill:none;stroke:#263238;stroke-miterlimit:10"></path><path d="M89.1,217.75h19.65a4.81,4.81,0,0,1,4.81,4.81v10.87a4.81,4.81,0,0,1-4.81,4.81H95.07l.71,6.76-6.41-6.76H89.1a4.81,4.81,0,0,1-4.81-4.81V222.56A4.81,4.81,0,0,1,89.1,217.75Z" transform="translate(-23.24 -15.45)" style="fill:none;stroke:#263238;stroke-miterlimit:10"></path><path d="M234.35,34.51H254a4.81,4.81,0,0,1,4.81,4.81V50.19A4.81,4.81,0,0,1,254,55H240.32l.71,6.76L234.62,55h-.27a4.81,4.81,0,0,1-4.81-4.81V39.32A4.81,4.81,0,0,1,234.35,34.51Z" transform="translate(-23.24 -15.45)" style="fill:none;stroke:#263238;stroke-miterlimit:10"></path></g><g id="freepik--Connections--inject-186"><polyline points="184.41 41.14 232.49 175.5 335.74 43.26" style="fill:none;stroke:#263238;stroke-miterlimit:10"></polyline><polyline points="376.75 128.83 232.49 175.5 329.37 284.4" style="fill:none;stroke:#263238;stroke-miterlimit:10"></polyline><polyline points="121.47 280.16 232.49 175.5 81.16 150.04" style="fill:none;stroke:#263238;stroke-miterlimit:10"></polyline><circle cx="399.37" cy="144.68" r="14.62" transform="translate(62.75 415.98) rotate(-62.37)" style="fill:#263238;stroke:#263238;stroke-miterlimit:10;stroke-width:0.5px"></circle><path d="M404.22,143.69h-9.53a3.37,3.37,0,0,0-3.37,3.37v8a13.09,13.09,0,0,0,16.27-.13v-7.87A3.37,3.37,0,0,0,404.22,143.69Z" transform="translate(-23.24 -15.45)" style="fill:#F1C376;stroke:#263238;stroke-miterlimit:10"></path><path d="M399.29,142.22a4.85,4.85,0,1,0-4.85-4.85A4.85,4.85,0,0,0,399.29,142.22Z" transform="translate(-23.24 -15.45)" style="fill:#F1C376;stroke:#263238;stroke-miterlimit:10"></path><circle cx="354.11" cy="294.67" r="14.62" transform="translate(-77.68 492.1) rotate(-67.29)" style="fill:#263238;stroke:#263238;stroke-miterlimit:10;stroke-width:0.5px"></circle><path d="M359,293.69h-9.53a3.36,3.36,0,0,0-3.37,3.36v8a13.09,13.09,0,0,0,16.27-.13v-7.87A3.36,3.36,0,0,0,359,293.69Z" transform="translate(-23.24 -15.45)" style="fill:#F1C376;stroke:#263238;stroke-miterlimit:10"></path><path d="M354,292.21a4.85,4.85,0,1,0-4.85-4.85A4.85,4.85,0,0,0,354,292.21Z" transform="translate(-23.24 -15.45)" style="fill:#F1C376;stroke:#263238;stroke-miterlimit:10"></path><circle cx="183.78" cy="40.2" r="10.38" style="fill:#263238;stroke:#263238;stroke-miterlimit:10;stroke-width:0.5px"></circle><path d="M210.46,55H203.7a2.39,2.39,0,0,0-2.39,2.39V63a9.31,9.31,0,0,0,11.54-.09V57.34A2.39,2.39,0,0,0,210.46,55Z" transform="translate(-23.24 -15.45)" style="fill:#F1C376;stroke:#263238;stroke-miterlimit:10"></path><path d="M207,53.9a3.44,3.44,0,1,0-3.44-3.44A3.44,3.44,0,0,0,207,53.9Z" transform="translate(-23.24 -15.45)" style="fill:#F1C376;stroke:#263238;stroke-miterlimit:10"></path><circle cx="143.12" cy="293.91" r="10.38" transform="translate(-206.48 297.36) rotate(-67.35)" style="fill:#263238;stroke:#263238;stroke-miterlimit:10;stroke-width:0.5px"></circle><path d="M146.56,293.21H139.8a2.39,2.39,0,0,0-2.4,2.4v5.67a9.28,9.28,0,0,0,11.55-.09v-5.58A2.39,2.39,0,0,0,146.56,293.21Z" transform="translate(-23.24 -15.45)" style="fill:#F1C376;stroke:#263238;stroke-miterlimit:10"></path><path d="M143.06,292.16a3.44,3.44,0,1,0-3.44-3.44A3.44,3.44,0,0,0,143.06,292.16Z" transform="translate(-23.24 -15.45)" style="fill:#F1C376;stroke:#263238;stroke-miterlimit:10"></path><circle cx="358.8" cy="54.89" r="10.38" transform="translate(153.74 353.6) rotate(-68.64)" style="fill:#263238;stroke:#263238;stroke-miterlimit:10;stroke-width:0.5px"></circle><path d="M362.25,54.19h-6.77a2.39,2.39,0,0,0-2.39,2.39v5.68a9.32,9.32,0,0,0,11.55-.09V56.58A2.39,2.39,0,0,0,362.25,54.19Z" transform="translate(-23.24 -15.45)" style="fill:#F1C376;stroke:#263238;stroke-miterlimit:10"></path><path d="M358.75,53.14a3.44,3.44,0,1,0-3.44-3.44A3.44,3.44,0,0,0,358.75,53.14Z" transform="translate(-23.24 -15.45)" style="fill:#F1C376;stroke:#263238;stroke-miterlimit:10"></path><circle cx="103.13" cy="163" r="18.95" transform="translate(-110.39 179.2) rotate(-67.12)" style="fill:#263238;stroke:#263238;stroke-miterlimit:10;stroke-width:0.5px"></circle><path d="M109.41,161.73H97.06a4.37,4.37,0,0,0-4.37,4.36v10.36a17,17,0,0,0,21.08-.16v-10.2A4.36,4.36,0,0,0,109.41,161.73Z" transform="translate(-23.24 -15.45)" style="fill:#F1C376;stroke:#263238;stroke-miterlimit:10"></path><path d="M103,159.81a6.28,6.28,0,1,0-6.28-6.28A6.28,6.28,0,0,0,103,159.81Z" transform="translate(-23.24 -15.45)" style="fill:#F1C376;stroke:#263238;stroke-miterlimit:10"></path></g><g id="freepik--Clouds--inject-186"><path d="M164.77,87.64c0-.06,0-.12,0-.18A13.64,13.64,0,0,0,155.52,76a13.05,13.05,0,0,0-7.78-.19,15.72,15.72,0,0,0,.57-5.92,15.76,15.76,0,0,0-31.44.85c-.23,0-.46,0-.69,0a15.77,15.77,0,0,0-15.77,15.77,15.56,15.56,0,0,0,.56,4.18A8.74,8.74,0,0,0,109.42,97H156A8.75,8.75,0,0,0,164.77,87.64Z" transform="translate(-23.24 -15.45)" style="fill:none;stroke:#263238;stroke-miterlimit:10"></path><path d="M404,247.71a.38.38,0,0,1,0-.1,7.37,7.37,0,0,0-5-6.2,7,7,0,0,0-4.2-.1,8.48,8.48,0,0,0,.32-3.2,8.51,8.51,0,0,0-17,.46l-.37,0a8.52,8.52,0,0,0-8.51,8.52,8.79,8.79,0,0,0,.3,2.25,4.72,4.72,0,0,0,4.56,3.42h25.14A4.72,4.72,0,0,0,404,247.71Z" transform="translate(-23.24 -15.45)" style="fill:none;stroke:#263238;stroke-miterlimit:10"></path><path d="M182.9,324.77s0-.06,0-.09a7.36,7.36,0,0,0-5-6.2,7,7,0,0,0-4.2-.1,8.48,8.48,0,0,0,.31-3.2,8.6,8.6,0,0,0-8.27-7.71,8.5,8.5,0,0,0-8.7,8.17l-.37,0a8.51,8.51,0,0,0-8.52,8.52,8.37,8.37,0,0,0,.31,2.25,4.7,4.7,0,0,0,4.56,3.42h25.13A4.72,4.72,0,0,0,182.9,324.77Z" transform="translate(-23.24 -15.45)" style="fill:none;stroke:#263238;stroke-miterlimit:10"></path><path d="M326,64.29a.28.28,0,0,0,0-.09,7.34,7.34,0,0,0-5-6.2,7,7,0,0,0-4.2-.11,8.23,8.23,0,0,0,.31-3.19,8.51,8.51,0,0,0-17,.46l-.37,0a8.53,8.53,0,0,0-8.21,10.77,4.72,4.72,0,0,0,4.56,3.42h25.14A4.71,4.71,0,0,0,326,64.29Z" transform="translate(-23.24 -15.45)" style="fill:none;stroke:#263238;stroke-miterlimit:10"></path></g></svg>